<?xml version="1.0" encoding="UTF-8" standalone="no"?>
<!-- Created with Inkscape (http://www.inkscape.org/) -->

<svg
   xmlns:dc="http://purl.org/dc/elements/1.1/"
   xmlns:cc="http://creativecommons.org/ns#"
   xmlns:rdf="http://www.w3.org/1999/02/22-rdf-syntax-ns#"
   xmlns:svg="http://www.w3.org/2000/svg"
   xmlns="http://www.w3.org/2000/svg"
   xmlns:sodipodi="http://sodipodi.sourceforge.net/DTD/sodipodi-0.dtd"
   xmlns:inkscape="http://www.inkscape.org/namespaces/inkscape"
   version="1.1"
   id="svg2"
   xml:space="preserve"
   width="440"
   height="506"
   viewBox="0 0 440 506"
   sodipodi:docname="robot.svg"
   inkscape:version="0.92.3 (2405546, 2018-03-11)"><metadata
     id="metadata8"><rdf:RDF><cc:Work
         rdf:about=""><dc:format>image/svg+xml</dc:format><dc:type
           rdf:resource="http://purl.org/dc/dcmitype/StillImage" /><dc:title></dc:title></cc:Work></rdf:RDF></metadata><defs
     id="defs6"><clipPath
       clipPathUnits="userSpaceOnUse"
       id="clipPath28"><path
         d="M 0,0 H 500 V 500 H 0 Z"
         id="path26"
         inkscape:connector-curvature="0" /></clipPath><clipPath
       clipPathUnits="userSpaceOnUse"
       id="clipPath36"><path
         d="M 96.8195,450.742 H 403.181 V 120.525 H 96.8195 Z"
         id="path34"
         inkscape:connector-curvature="0" /></clipPath><clipPath
       clipPathUnits="userSpaceOnUse"
       id="clipPath52"><path
         d="M 87.7632,143.406 H 410.338 V 121.895 H 87.7632 Z"
         id="path50"
         inkscape:connector-curvature="0" /></clipPath><clipPath
       clipPathUnits="userSpaceOnUse"
       id="clipPath132"><path
         d="m 242.851,172.689 h 25.535 v -25.611 h -25.535 z"
         id="path130"
         inkscape:connector-curvature="0" /></clipPath><clipPath
       clipPathUnits="userSpaceOnUse"
       id="clipPath448"><path
         d="M 0,500 H 500 V 0 H 0 Z"
         id="path446"
         inkscape:connector-curvature="0" /></clipPath></defs><sodipodi:namedview
     pagecolor="#ffffff"
     bordercolor="#666666"
     borderopacity="1"
     objecttolerance="10"
     gridtolerance="10"
     guidetolerance="10"
     inkscape:pageopacity="0"
     inkscape:pageshadow="2"
     inkscape:window-width="1311"
     inkscape:window-height="742"
     id="namedview4"
     showgrid="false"
     inkscape:zoom="0.70799998"
     inkscape:cx="414.19216"
     inkscape:cy="123.95587"
     inkscape:window-x="55"
     inkscape:window-y="26"
     inkscape:window-maximized="1"
     inkscape:current-layer="g10" /><g
     id="g10"
     inkscape:groupmode="layer"
     inkscape:label="218038-P0NP5H-98"
     transform="matrix(1.3333333,0,0,-1.3333333,0,505.99998)"><g
       id="g22"
       transform="matrix(1.0011357,0,0,1,-82.629048,-120.53867)"><g
         id="g24"
         clip-path="url(#clipPath28)"><g
           id="g30"><g
             id="g32" /><g
             id="g44"><g
               clip-path="url(#clipPath36)"
               id="g42"
               style="opacity:0.14999402"><g
                 transform="translate(219.7745,449.7257)"
                 id="g40"><path
                   d="m 0,0 -122.955,-313.149 c 0,0 72.878,-34.308 306.361,-2.611 L 61.366,1.016 c 0,0 -6.292,-2.345 -30.391,-2.981 C 8.475,-2.559 0,0 0,0"
                   style="fill:#e89f2b;fill-opacity:1;fill-rule:nonzero;stroke:none"
                   id="path38"
                   inkscape:connector-curvature="0" /></g></g></g></g><g
           id="g46"><g
             id="g48" /><g
             id="g60"><g
               clip-path="url(#clipPath52)"
               id="g58"
               style="opacity:0.69999701"><g
                 transform="translate(410.3384,132.6509)"
                 id="g56"><path
                   d="m 0,0 c 0,-5.94 -72.211,-10.755 -161.288,-10.755 -89.076,0 -161.287,4.815 -161.287,10.755 0,5.94 72.211,10.755 161.287,10.755 C -72.211,10.755 0,5.94 0,0"
                   style="fill:#e89f2b;fill-opacity:1;fill-rule:nonzero;stroke:none"
                   id="path54"
                   inkscape:connector-curvature="0" /></g></g></g></g><g
           id="g62"
           transform="translate(330.8863,131.4799)"><path
             d="m 0,0 c -5.272,-0.003 -9.549,4.268 -9.552,9.541 -0.003,5.272 4.268,9.549 9.54,9.552 5.273,0.003 9.55,-4.268 9.553,-9.541 C 9.544,4.28 5.272,0.003 0,0"
             style="fill:#e89f2b;fill-opacity:1;fill-rule:nonzero;stroke:none"
             id="path64"
             inkscape:connector-curvature="0" /></g><g
           id="g66"
           transform="translate(330.8465,197.5179)"><path
             d="m 0,0 c -5.272,-0.003 -9.549,4.268 -9.552,9.541 -0.003,5.272 4.268,9.549 9.541,9.552 C 5.261,19.096 9.538,14.824 9.541,9.552 9.544,4.28 5.272,0.003 0,0"
             style="fill:#e89f2b;fill-opacity:1;fill-rule:nonzero;stroke:none"
             id="path68"
             inkscape:connector-curvature="0" /></g><g
           id="g70"
           transform="translate(388.2464,173.8161)"><path
             d="m 0,0 c 3.168,-0.467 6.457,-0.842 9.185,-2.654 1.489,-0.989 2.766,-2.282 3.684,-3.819 0.775,-1.297 0.85,-2.354 2.161,-3.16 0.701,-0.431 1.44,0.025 1.71,0.696 1.326,3.295 -3.582,7.391 -6.059,8.842 C 7.394,1.831 3.303,2.817 -0.093,0.709 -0.347,0.551 -0.35,0.052 0,0"
             style="fill:#d18c2b;fill-opacity:1;fill-rule:nonzero;stroke:none"
             id="path72"
             inkscape:connector-curvature="0" /></g><g
           id="g74"
           transform="translate(399.3037,161.8979)"><path
             d="M 0,0 C 3.127,-7.999 15.564,-3.152 12.431,4.86 9.304,12.859 -3.132,8.012 0,0"
             style="fill:#dc432b;fill-opacity:1;fill-rule:nonzero;stroke:none"
             id="path76"
             inkscape:connector-curvature="0" /></g><g
           id="g78"
           transform="translate(236.616,129.639)"><path
             d="m 0,0 c -12.051,-0.937 -24.197,-1.489 -36.285,-1.182 -12.099,0.306 -24.147,2.859 -36.173,2.956 -1.248,0.01 -1.445,-1.772 -0.288,-2.135 11.344,-3.554 24.669,-3.523 36.461,-3.751 12.279,-0.237 24.384,0.513 36.533,2.283 C 1.279,-1.679 1.044,0.081 0,0"
             style="fill:#dc432b;fill-opacity:1;fill-rule:nonzero;stroke:none"
             id="path80"
             inkscape:connector-curvature="0" /></g><g
           id="g82"
           transform="translate(109.9978,138.0669)"><path
             d="M 0,0 C 14.89,-0.921 29.735,-1.027 44.65,-0.788 58.132,-0.572 73.135,-1.691 86.316,1.146 87.328,1.364 86.98,2.727 86.089,2.823 78.671,3.617 71.219,2.442 63.783,2.269 56.876,2.108 49.963,2.006 43.055,1.952 28.704,1.839 14.352,2.044 0,2.018 -1.308,2.015 -1.287,0.08 0,0"
             style="fill:#dc432b;fill-opacity:1;fill-rule:nonzero;stroke:none"
             id="path84"
             inkscape:connector-curvature="0" /></g><g
           id="g86"
           transform="translate(244.548,195.0307)"><path
             d="m 0,0 -0.04,-41.608 -5.45,0.005 -9.245,20.813 10.92,20.794 z"
             style="fill:#f1efe8;fill-opacity:1;fill-rule:nonzero;stroke:none"
             id="path88"
             inkscape:connector-curvature="0" /></g><g
           id="g90"
           transform="translate(200.3823,144.5355)"><path
             d="m 0,0 0.076,79.08 c 0.004,4.356 3.539,7.884 7.895,7.879 l 65.65,-0.062 c 4.356,-0.004 7.884,-3.539 7.88,-7.895 L 81.425,-0.078 C 81.421,-4.434 77.886,-7.962 73.53,-7.958 L 7.88,-7.895 C 3.524,-7.891 -0.004,-4.356 0,0"
             style="fill:#dc432b;fill-opacity:1;fill-rule:nonzero;stroke:none"
             id="path92"
             inkscape:connector-curvature="0" /></g><g
           id="g94"
           transform="translate(202.8612,172.5442)"><path
             d="m 0,0 23.207,48.292 c 0.671,1.396 2.346,1.984 3.742,1.313 l 5.909,-2.839 c 1.396,-0.671 1.984,-2.346 1.313,-3.742 L 10.964,-5.269 C 10.293,-6.665 8.617,-7.253 7.221,-6.582 l -5.908,2.84 C -0.083,-3.071 -0.671,-1.396 0,0"
             style="fill:#e89f2b;fill-opacity:1;fill-rule:nonzero;stroke:none"
             id="path96"
             inkscape:connector-curvature="0" /></g><g
           id="g98"
           transform="translate(225.5843,214.808)"><path
             d="M 0,0 C -2.079,-4.327 4.641,-7.565 6.724,-3.231 8.803,1.095 2.082,4.334 0,0"
             style="fill:#000000;fill-opacity:1;fill-rule:nonzero;stroke:none"
             id="path100"
             inkscape:connector-curvature="0" /></g><g
           id="g102"
           transform="translate(218.9353,200.9721)"><path
             d="M 0,0 C -2.079,-4.326 4.641,-7.565 6.724,-3.231 8.803,1.095 2.083,4.334 0,0"
             style="fill:#000000;fill-opacity:1;fill-rule:nonzero;stroke:none"
             id="path104"
             inkscape:connector-curvature="0" /></g><g
           id="g106"
           transform="translate(212.6935,187.9831)"><path
             d="M 0,0 C -2.079,-4.326 4.641,-7.565 6.724,-3.231 8.803,1.095 2.082,4.334 0,0"
             style="fill:#000000;fill-opacity:1;fill-rule:nonzero;stroke:none"
             id="path108"
             inkscape:connector-curvature="0" /></g><g
           id="g110"
           transform="translate(207.2658,176.6884)"><path
             d="M 0,0 C -2.079,-4.327 4.641,-7.565 6.724,-3.231 8.803,1.095 2.083,4.334 0,0"
             style="fill:#000000;fill-opacity:1;fill-rule:nonzero;stroke:none"
             id="path112"
             inkscape:connector-curvature="0" /></g><g
           id="g114"
           transform="translate(250.5087,148.1561)"><path
             d="M 0,0 3.415,5.901 C 3.962,5.739 4.542,5.651 5.143,5.65 c 2.868,-0.003 5.274,1.983 5.915,4.655 l 6.816,-0.007 C 17.163,3.893 11.729,-1.084 5.136,-1.078 3.309,-1.076 1.572,-0.691 0,0 m -7.657,11.74 c 0.004,4.231 2.06,7.979 5.224,10.308 L 0.97,16.141 C -0.198,15.035 -0.927,13.47 -0.929,11.733 -0.931,9.997 -0.204,8.431 0.962,7.322 l -3.414,-5.9 C -5.613,3.756 -7.661,7.509 -7.657,11.74 M 5.161,24.533 c 6.593,-0.006 12.017,-4.995 12.716,-11.4 l -6.816,0.006 c -0.636,2.674 -3.038,4.664 -5.907,4.666 -0.6,0.001 -1.18,-0.086 -1.728,-0.248 l -3.404,5.908 c 1.574,0.688 3.312,1.07 5.139,1.068 M 7.683,11.725 C 7.682,10.325 6.546,9.191 5.146,9.193 3.746,9.194 2.612,10.33 2.613,11.73 c 0.002,1.4 1.138,2.534 2.538,2.532 1.4,-0.001 2.534,-1.137 2.532,-2.537 M 4.406,-11.588 c 0.226,-0.007 0.453,-0.011 0.681,-0.011 0.228,0 0.454,0.003 0.681,0.01 l 0.676,6.442 c 0.281,0.022 0.56,0.05 0.837,0.086 l 1.989,-6.168 c 0.449,0.081 0.893,0.176 1.332,0.282 l -0.679,6.443 c 0.27,0.08 0.537,0.167 0.802,0.26 l 3.228,-5.619 c 0.421,0.173 0.835,0.356 1.243,0.551 l -2.003,6.164 c 0.247,0.134 0.489,0.275 0.729,0.421 l 4.324,-4.823 c 0.375,0.256 0.742,0.524 1.102,0.801 l -3.241,5.61 c 0.213,0.182 0.422,0.37 0.626,0.562 l 5.233,-3.819 c 0.314,0.327 0.617,0.665 0.911,1.011 l -4.335,4.814 c 0.171,0.222 0.336,0.448 0.496,0.679 l 5.914,-2.648 c 0.239,0.385 0.467,0.777 0.683,1.177 l -5.242,3.808 c 0.12,0.252 0.235,0.509 0.343,0.769 l 6.336,-1.361 c 0.153,0.425 0.293,0.857 0.421,1.293 l -5.92,2.635 c 0.065,0.272 0.123,0.547 0.175,0.824 l 6.478,-0.014 c 0.06,0.448 0.108,0.899 0.143,1.354 l -6.339,1.346 c 0.004,0.14 0.006,0.28 0.006,0.42 0,0.141 -0.001,0.281 -0.005,0.421 l 6.341,1.334 c -0.033,0.455 -0.081,0.906 -0.14,1.354 l -6.478,-10e-4 c -0.052,0.277 -0.109,0.551 -0.174,0.823 l 5.926,2.624 c -0.128,0.437 -0.267,0.868 -0.419,1.295 l -6.338,-1.349 c -0.108,0.26 -0.222,0.516 -0.342,0.77 l 5.25,3.797 c -0.216,0.4 -0.444,0.793 -0.682,1.178 l -5.919,-2.636 c -0.159,0.23 -0.324,0.457 -0.494,0.68 l 4.344,4.805 c -0.293,0.346 -0.596,0.685 -0.909,1.013 L 16.756,24.01 c -0.203,0.193 -0.411,0.38 -0.624,0.563 l 3.251,5.604 c -0.359,0.278 -0.725,0.546 -1.1,0.803 l -4.334,-4.815 c -0.239,0.147 -0.481,0.288 -0.728,0.423 l 2.016,6.159 c -0.408,0.197 -0.822,0.381 -1.243,0.554 l -3.239,-5.612 c -0.264,0.093 -0.531,0.18 -0.801,0.261 l 0.691,6.442 c -0.439,0.107 -0.883,0.202 -1.331,0.284 L 7.313,28.512 C 7.036,28.548 6.757,28.577 6.476,28.6 l -0.664,6.443 c -0.226,0.007 -0.453,0.011 -0.68,0.012 -0.228,0 -0.455,-0.004 -0.681,-0.01 L 3.775,28.602 C 3.494,28.58 3.215,28.552 2.938,28.517 l -1.99,6.167 C 0.5,34.603 0.056,34.508 -0.383,34.403 L 0.295,27.959 C 0.025,27.879 -0.242,27.793 -0.506,27.7 l -3.228,5.618 C -4.155,33.146 -4.57,32.963 -4.978,32.767 l 2.004,-6.164 c -0.247,-0.134 -0.49,-0.275 -0.729,-0.421 l -4.325,4.823 c -0.375,-0.256 -0.742,-0.523 -1.101,-0.8 l 3.24,-5.611 C -6.102,24.412 -6.31,24.225 -6.514,24.033 l -5.234,3.819 c -0.313,-0.328 -0.617,-0.666 -0.911,-1.012 l 4.335,-4.813 c -0.171,-0.223 -0.336,-0.449 -0.495,-0.68 l -5.914,2.648 c -0.239,-0.385 -0.467,-0.777 -0.684,-1.177 l 5.243,-3.807 c -0.121,-0.253 -0.236,-0.51 -0.344,-0.769 l -6.336,1.361 c -0.152,-0.426 -0.293,-0.858 -0.421,-1.294 l 5.92,-2.635 c -0.064,-0.272 -0.123,-0.547 -0.174,-0.824 l -6.478,0.014 c -0.06,-0.447 -0.109,-0.899 -0.143,-1.354 l 6.338,-1.346 c -0.004,-0.14 -0.006,-0.279 -0.006,-0.42 0,-0.141 0.002,-0.281 0.005,-0.421 L -18.154,9.99 c 0.034,-0.456 0.082,-0.907 0.141,-1.355 l 6.478,0.002 c 0.051,-0.277 0.109,-0.552 0.173,-0.824 l -5.926,-2.624 c 0.128,-0.437 0.267,-0.868 0.419,-1.294 l 6.338,1.348 c 0.108,-0.26 0.222,-0.516 0.343,-0.769 l -5.25,-3.798 c 0.216,-0.4 0.443,-0.792 0.681,-1.178 l 5.919,2.637 c 0.16,-0.231 0.324,-0.458 0.494,-0.681 l -4.344,-4.805 c 0.294,-0.346 0.596,-0.685 0.909,-1.013 l 5.241,3.809 c 0.204,-0.193 0.412,-0.38 0.624,-0.563 l -3.25,-5.604 C -8.806,-7 -8.439,-7.268 -8.065,-7.525 l 4.334,4.815 c 0.239,-0.146 0.482,-0.288 0.728,-0.423 l -2.015,-6.159 c 0.407,-0.197 0.822,-0.381 1.242,-0.554 l 3.239,5.613 c 0.264,-0.094 0.531,-0.181 0.801,-0.262 l -0.691,-6.442 c 0.439,-0.107 0.883,-0.202 1.331,-0.284 l 2.002,6.164 c 0.277,-0.036 0.555,-0.065 0.836,-0.087 z"
             style="fill:#e89f2b;fill-opacity:1;fill-rule:nonzero;stroke:none"
             id="path116"
             inkscape:connector-curvature="0" /></g><g
           id="g118"
           transform="translate(253.9232,154.0575)"><path
             d="M 0,0 C 0.548,-0.163 1.128,-0.251 1.728,-0.252 4.597,-0.254 7.003,1.731 7.644,4.403 L 14.46,4.397 C 13.748,-2.008 8.315,-6.986 1.722,-6.979 c -1.827,0.001 -3.565,0.386 -5.137,1.078 z m -11.072,5.838 c 0.004,4.231 2.06,7.98 5.225,10.309 L -2.444,10.24 C -3.613,9.133 -4.342,7.568 -4.344,5.832 -4.345,4.096 -3.619,2.529 -2.453,1.42 l -3.414,-5.9 c -3.16,2.335 -5.209,6.088 -5.205,10.318 m 7.68,11.726 c 1.573,0.687 3.311,1.069 5.138,1.068 C 8.339,18.625 13.763,13.637 14.462,7.231 L 7.646,7.238 C 7.01,9.911 4.608,11.901 1.74,11.904 1.139,11.904 0.559,11.817 0.011,11.656 Z M 1.731,3.291 C 0.332,3.293 -0.802,4.429 -0.801,5.828 -0.8,7.229 0.336,8.362 1.736,8.361 3.136,8.36 4.27,7.224 4.269,5.824 4.267,4.424 3.132,3.29 1.731,3.291 m 16.032,2.52 c 0.008,8.874 -7.179,16.075 -16.053,16.083 -8.874,0.009 -16.075,-7.178 -16.083,-16.052 -0.009,-8.875 7.178,-16.076 16.052,-16.084 8.875,-0.009 16.075,7.179 16.084,16.053"
             style="fill:#e89f2b;fill-opacity:1;fill-rule:nonzero;stroke:none"
             id="path120"
             inkscape:connector-curvature="0" /></g><g
           id="g122"
           transform="translate(241.3751,159.8972)"><path
             d="M 0,0 C 0.007,7.866 6.39,14.237 14.257,14.229 22.122,14.221 28.493,7.839 28.485,-0.027 28.478,-7.893 22.095,-14.264 14.229,-14.256 6.363,-14.249 -0.007,-7.866 0,0 M 29,-0.028 C 29.008,8.123 22.408,14.737 14.257,14.744 6.106,14.752 -0.507,8.151 -0.515,0.001 -0.523,-8.15 6.078,-14.764 14.229,-14.771 22.379,-14.779 28.993,-8.178 29,-0.028"
             style="fill:#d9d9d9;fill-opacity:1;fill-rule:nonzero;stroke:none"
             id="path124"
             inkscape:connector-curvature="0" /></g><g
           id="g126"><g
             id="g128" /><g
             id="g140"><g
               clip-path="url(#clipPath132)"
               id="g138"><g
                 transform="translate(250.5087,148.1561)"
                 id="g136"><path
                   d="M 0,0 3.415,5.901 C 3.962,5.739 4.542,5.651 5.143,5.65 c 2.868,-0.003 5.274,1.983 5.915,4.655 l 6.816,-0.007 C 17.163,3.893 11.729,-1.084 5.136,-1.078 3.309,-1.076 1.572,-0.691 0,0 m -7.657,11.74 c 0.004,4.231 2.06,7.979 5.224,10.308 L 0.97,16.141 C -0.198,15.035 -0.927,13.47 -0.929,11.733 -0.931,9.997 -0.204,8.431 0.962,7.322 l -3.414,-5.9 C -5.613,3.756 -7.661,7.509 -7.657,11.74 M 5.161,24.533 c 6.593,-0.006 12.017,-4.995 12.716,-11.4 l -6.816,0.006 c -0.636,2.674 -3.038,4.664 -5.907,4.666 -0.6,0.001 -1.18,-0.086 -1.728,-0.248 l -3.404,5.908 c 1.574,0.688 3.312,1.07 5.139,1.068 M 2.613,11.73 c 0.002,1.4 1.138,2.534 2.538,2.532 1.4,-0.001 2.534,-1.137 2.532,-2.537 C 7.682,10.325 6.546,9.191 5.146,9.193 3.746,9.194 2.612,10.33 2.613,11.73"
                   style="fill:#ffffff;fill-opacity:1;fill-rule:nonzero;stroke:none"
                   id="path134"
                   inkscape:connector-curvature="0" /></g></g></g></g><g
           id="g142"
           transform="translate(245.779,173.3682)"><path
             d="M 0,0 C 0,-0.026 0.041,-0.026 0.041,0 0.041,0.026 0,0.026 0,0"
             style="fill:#f1efe8;fill-opacity:1;fill-rule:nonzero;stroke:none"
             id="path144"
             inkscape:connector-curvature="0" /></g><g
           id="g146"
           transform="translate(245.7777,172.0057)"><path
             d="M 0,0 C 0,-0.026 0.041,-0.026 0.041,0 0.041,0.026 0,0.026 0,0"
             style="fill:#f1efe8;fill-opacity:1;fill-rule:nonzero;stroke:none"
             id="path148"
             inkscape:connector-curvature="0" /></g><g
           id="g150"
           transform="translate(394.667,176.7851)"><path
             d="m 0,0 c -0.006,10.432 -11.417,18.882 -25.486,18.873 l 0.023,-37.777 C -11.394,-18.896 0.006,-10.432 0,0"
             style="fill:#e89f2b;fill-opacity:1;fill-rule:nonzero;stroke:none"
             id="path152"
             inkscape:connector-curvature="0" /></g><g
           id="g154"
           transform="translate(288.1174,146.4547)"><path
             d="m 0,0 -0.031,50.641 c -0.003,5.423 4.39,9.821 9.813,9.824 l 72.214,0.044 c 5.422,0.003 9.82,-4.39 9.824,-9.812 L 91.85,0.055 c 0.004,-5.422 -4.389,-9.82 -9.812,-9.824 L 9.824,-9.812 C 4.402,-9.815 0.003,-5.422 0,0"
             style="fill:#dc432b;fill-opacity:1;fill-rule:nonzero;stroke:none"
             id="path156"
             inkscape:connector-curvature="0" /></g><g
           id="g158"
           transform="translate(284.8721,218.0027)"><path
             d="M 0,0 2.807,1.345 C 3.47,1.663 3.75,2.458 3.432,3.122 L -3.143,16.84 c -0.318,0.663 -1.113,0.943 -1.776,0.625 L -7.726,16.12 C -8.389,15.802 -8.669,15.006 -8.351,14.343 L -1.776,0.625 C -1.459,-0.038 -0.663,-0.318 0,0"
             style="fill:#5a9eaa;fill-opacity:1;fill-rule:nonzero;stroke:none"
             id="path160"
             inkscape:connector-curvature="0" /></g><g
           id="g162"
           transform="translate(293.3152,259.1067)"><path
             d="m 0,0 3.752,-1.099 c 0.887,-0.259 1.395,-1.189 1.136,-2.075 l -8.159,-27.864 c -0.26,-0.887 -1.189,-1.395 -2.075,-1.136 l -3.753,1.099 c -0.886,0.26 -1.395,1.189 -1.135,2.075 l 8.159,27.865 C -1.816,-0.249 -0.887,0.26 0,0"
             style="fill:#488c93;fill-opacity:1;fill-rule:nonzero;stroke:none"
             id="path164"
             inkscape:connector-curvature="0" /></g><g
           id="g166"
           transform="translate(275.833,277.7625)"><path
             d="m 0,0 2.269,3.184 c 0.536,0.753 1.58,0.928 2.333,0.392 l 13.589,-9.684 c 0.752,-0.536 0.928,-1.581 0.392,-2.333 l -2.269,-3.184 c -0.536,-0.753 -1.581,-0.928 -2.333,-0.392 L 0.392,-2.333 C -0.361,-1.797 -0.536,-0.752 0,0"
             style="fill:#488c93;fill-opacity:1;fill-rule:nonzero;stroke:none"
             id="path168"
             inkscape:connector-curvature="0" /></g><g
           id="g170"
           transform="translate(298.8239,262.6049)"><path
             d="M 0,0 C 0.234,2.254 -1.403,4.27 -3.657,4.504 -5.911,4.738 -7.927,3.101 -8.161,0.848 -8.395,-1.406 -6.758,-3.423 -4.504,-3.657 -2.251,-3.891 -0.234,-2.254 0,0"
             style="fill:#dc432b;fill-opacity:1;fill-rule:nonzero;stroke:none"
             id="path172"
             inkscape:connector-curvature="0" /></g><g
           id="g174"
           transform="translate(293.9548,132.9253)"><path
             d="M 0,0 -0.152,-3.109 C -0.188,-3.844 -0.813,-4.41 -1.548,-4.374 l -15.193,0.744 c -0.735,0.036 -1.301,0.661 -1.265,1.395 l 0.152,3.109 c 0.036,0.735 0.66,1.301 1.395,1.265 L -1.265,1.395 C -0.53,1.359 0.036,0.735 0,0"
             style="fill:#5a9eaa;fill-opacity:1;fill-rule:nonzero;stroke:none"
             id="path176"
             inkscape:connector-curvature="0" /></g><g
           id="g178"
           transform="translate(200.6349,154.3096)"><path
             d="M 0,0 -0.157,3.907 C -0.195,4.83 -0.973,5.548 -1.896,5.511 L -30.907,4.342 C -31.83,4.305 -32.548,3.527 -32.511,2.604 l 0.157,-3.907 c 0.038,-0.923 0.816,-1.641 1.739,-1.604 l 29.011,1.168 C -0.681,-1.702 0.037,-0.923 0,0"
             style="fill:#488c93;fill-opacity:1;fill-rule:nonzero;stroke:none"
             id="path180"
             inkscape:connector-curvature="0" /></g><g
           id="g182"
           transform="translate(162.0707,165.7548)"><path
             d="M 0,0 3.864,0.6 C 4.777,0.742 5.402,1.597 5.26,2.509 l -2.559,16.49 c -0.142,0.912 -0.997,1.537 -1.909,1.396 l -3.864,-0.6 C -3.985,19.654 -4.61,18.799 -4.469,17.886 l 2.56,-16.49 C -1.768,0.483 -0.913,-0.142 0,0"
             style="fill:#488c93;fill-opacity:1;fill-rule:nonzero;stroke:none"
             id="path184"
             inkscape:connector-curvature="0" /></g><g
           id="g186"
           transform="translate(169.1603,165.4552)"><path
             d="M 0,0 C 1.803,-1.372 2.154,-3.946 0.782,-5.749 -0.589,-7.553 -3.163,-7.903 -4.967,-6.531 -6.77,-5.16 -7.12,-2.586 -5.749,-0.782 -4.377,1.021 -1.803,1.372 0,0"
             style="fill:#dc432b;fill-opacity:1;fill-rule:nonzero;stroke:none"
             id="path188"
             inkscape:connector-curvature="0" /></g><g
           id="g190"
           transform="translate(379.5747,139.895)"><path
             d="m 0,0 13.12,4.669 5.502,-8.767 -3.797,-2.755 -3.088,5.21 L 5.1,-3.979 5.863,-9.594 1.208,-11.345 Z"
             style="fill:#dc432b;fill-opacity:1;fill-rule:nonzero;stroke:none"
             id="path192"
             inkscape:connector-curvature="0" /></g><g
           id="g194"
           transform="translate(179.5252,126.8125)"><path
             d="m 0,0 -9.108,1.685 c -0.889,0.164 -1.476,1.017 -1.311,1.906 l 3.401,18.389 c 0.164,0.888 1.017,1.475 1.906,1.311 L 3.996,21.606 C 4.885,21.442 5.472,20.588 5.308,19.7 L 1.906,1.311 C 1.742,0.423 0.889,-0.164 0,0"
             style="fill:#5a9eaa;fill-opacity:1;fill-rule:nonzero;stroke:none"
             id="path196"
             inkscape:connector-curvature="0" /></g><g
           id="g198"
           transform="translate(177.7068,142.8648)"><path
             d="m 0,0 c -8.417,1.557 -16.502,-4.004 -18.059,-12.421 l 30.48,-5.638 C 13.978,-9.642 8.417,-1.557 0,0"
             style="fill:#d18c2b;fill-opacity:1;fill-rule:nonzero;stroke:none"
             id="path200"
             inkscape:connector-curvature="0" /></g><g
           id="g202"
           transform="translate(137.0956,158.647)"><path
             d="M 0,0 6.388,5.202 C 7.089,5.772 8.119,5.667 8.69,4.966 l 11.808,-14.5 c 0.571,-0.701 0.465,-1.732 -0.235,-2.302 l -6.388,-5.202 c -0.701,-0.571 -1.732,-0.465 -2.302,0.236 l -11.809,14.5 C -0.806,-1.601 -0.701,-0.571 0,0"
             style="fill:#488c93;fill-opacity:1;fill-rule:nonzero;stroke:none"
             id="path204"
             inkscape:connector-curvature="0" /></g><g
           id="g206"
           transform="translate(123.614,171.7473)"><path
             d="m 0,0 9.771,7.957 c 0.701,0.571 1.731,0.465 2.302,-0.236 l 11.808,-14.5 c 0.571,-0.701 0.465,-1.732 -0.235,-2.302 l -9.771,-7.957 c -0.701,-0.571 -1.731,-0.465 -2.302,0.236 l -11.809,14.5 C -0.806,-1.601 -0.701,-0.571 0,0"
             style="fill:#5a9eaa;fill-opacity:1;fill-rule:nonzero;stroke:none"
             id="path208"
             inkscape:connector-curvature="0" /></g><g
           id="g210"
           transform="translate(119.3993,145.6517)"><path
             d="M 0,0 C -8.537,0.623 -15.962,-5.793 -16.585,-14.33 L 14.33,-16.585 C 14.953,-8.048 8.537,-0.623 0,0"
             style="fill:#d18c2b;fill-opacity:1;fill-rule:nonzero;stroke:none"
             id="path212"
             inkscape:connector-curvature="0" /></g><g
           id="g214"
           transform="translate(332.9967,192.4829)"><path
             d="m 0,0 c 1.502,-2.585 4.646,-4.386 7.039,-6.111 2.78,-2.004 5.586,-4.61 8.791,-5.85 1.568,-0.606 2.553,1.593 1.548,2.658 -2.211,2.344 -5.536,3.861 -8.263,5.563 C 6.509,-2.115 3.585,0.217 0.505,0.657 0.139,0.709 -0.214,0.368 0,0"
             style="fill:#000000;fill-opacity:1;fill-rule:nonzero;stroke:none"
             id="path216"
             inkscape:connector-curvature="0" /></g><g
           id="g218"
           transform="translate(336.0771,178.887)"><path
             d="m 0,0 c 2.904,1.136 5.213,3.826 7.372,6.007 2.004,2.026 5.708,4.537 6.28,7.411 0.211,1.057 -0.632,1.953 -1.711,1.711 C 9.054,14.483 6.68,10.762 4.688,8.691 2.567,6.485 -0.103,4.088 -1.161,1.161 -1.394,0.519 -0.654,-0.256 0,0"
             style="fill:#000000;fill-opacity:1;fill-rule:nonzero;stroke:none"
             id="path220"
             inkscape:connector-curvature="0" /></g><g
           id="g222"
           transform="translate(332.9967,155.2692)"><path
             d="m 0,0 c 1.502,-2.585 4.646,-4.386 7.039,-6.111 2.78,-2.004 5.586,-4.61 8.791,-5.85 1.568,-0.606 2.553,1.593 1.548,2.658 -2.211,2.344 -5.536,3.861 -8.263,5.562 C 6.509,-2.115 3.585,0.217 0.505,0.657 0.139,0.709 -0.214,0.368 0,0"
             style="fill:#000000;fill-opacity:1;fill-rule:nonzero;stroke:none"
             id="path224"
             inkscape:connector-curvature="0" /></g><g
           id="g226"
           transform="translate(336.0771,141.6734)"><path
             d="m 0,0 c 2.904,1.136 5.213,3.826 7.372,6.007 2.004,2.026 5.708,4.536 6.28,7.411 0.211,1.057 -0.632,1.953 -1.711,1.711 C 9.054,14.483 6.68,10.762 4.688,8.691 2.567,6.485 -0.103,4.088 -1.161,1.161 -1.394,0.519 -0.654,-0.256 0,0"
             style="fill:#000000;fill-opacity:1;fill-rule:nonzero;stroke:none"
             id="path228"
             inkscape:connector-curvature="0" /></g><g
           id="g230"
           transform="translate(274.5026,289.1776)"><path
             d="m 0,0 c 0.158,0.209 0.495,0.542 0.697,0.942 2.551,5.053 5.083,10.115 7.615,15.177 0.123,0.245 0.25,0.505 0.291,0.771 0.144,0.918 -0.758,1.665 -1.576,1.249 C 6.648,17.946 6.329,17.511 6.127,17.113 3.608,12.133 1.114,7.14 -1.381,2.148 -1.522,1.867 -1.682,1.574 -1.727,1.272 -1.855,0.409 -1.05,-0.292 0,0 m -4.2,2.12 c 0.166,0.232 0.511,0.605 0.731,1.04 2.514,4.983 5.009,9.976 7.507,14.967 0.123,0.247 0.353,0.532 0.308,0.753 C 4.253,19.34 4.115,20.01 3.8,20.149 3.408,20.321 2.788,20.116 2.327,19.927 2.096,19.832 1.986,19.417 1.845,19.135 -0.624,14.218 -3.089,9.299 -5.553,4.379 -5.694,4.096 -5.862,3.813 -5.929,3.51 -6.131,2.596 -5.325,1.812 -4.2,2.12 m -17.602,-42.247 c -1.101,0.543 -2.157,1.064 -3.296,1.627 0.745,2.386 1.457,4.732 2.227,7.059 0.112,0.339 0.462,0.642 0.772,0.863 1.261,0.898 2.069,2.101 2.752,3.485 3.419,6.938 6.905,13.843 10.375,20.755 0.177,0.352 0.43,0.667 0.817,1.26 -1.189,0.51 -2.196,0.874 -3.123,1.384 -0.256,0.141 -0.415,0.739 -0.363,1.09 0.066,0.447 0.417,0.845 0.599,1.283 0.251,0.607 0.576,0.756 1.281,0.637 0.494,-0.083 1.369,0.228 1.54,0.605 0.177,0.391 -0.142,1.223 -0.512,1.592 -0.475,0.471 -0.492,0.784 -0.223,1.318 3.083,6.13 6.144,12.271 9.229,18.401 0.754,1.497 2.015,2.323 3.685,2.45 2.872,0.219 5.114,-0.931 6.646,-3.334 0.909,-1.426 0.974,-2.98 0.191,-4.537 C 7.75,9.75 4.709,3.687 1.685,-2.384 1.378,-3 1.099,-3.259 0.323,-3.068 c -0.444,0.109 -1.208,-0.186 -1.477,-0.555 -0.208,-0.284 -0.045,-1.214 0.257,-1.427 0.921,-0.65 0.677,-1.262 0.238,-1.995 -0.281,-0.469 -0.52,-0.963 -0.963,-1.792 -1.134,0.779 -2.204,1.515 -3.435,2.36 -0.701,-1.485 -1.184,-2.564 -1.712,-3.621 -3.281,-6.564 -6.584,-13.117 -9.842,-19.691 -0.322,-0.65 -0.552,-1.424 -0.548,-2.139 0.008,-1.425 -0.446,-2.577 -1.338,-3.679 -1.168,-1.442 -2.2,-2.995 -3.305,-4.52"
             style="fill:#000000;fill-opacity:1;fill-rule:nonzero;stroke:none"
             id="path232"
             inkscape:connector-curvature="0" /></g><g
           id="g234"
           transform="translate(273.1457,273.9973)"><path
             d="m 0,0 7.628,11.651 -7.226,7.412 -3.571,-3.041 4.336,-4.228 -3.833,-5.9 -5.277,2.064 -2.799,-4.112 z"
             style="fill:#dc432b;fill-opacity:1;fill-rule:nonzero;stroke:none"
             id="path236"
             inkscape:connector-curvature="0" /></g><g
           id="g238"
           transform="translate(264.9163,228.4489)"><path
             d="m 0,0 h -46.426 c -0.6,0 -1.085,0.486 -1.085,1.085 v 3.912 c 0,0.599 0.485,1.085 1.085,1.085 H 0 c 0.599,0 1.085,-0.486 1.085,-1.085 V 1.085 C 1.085,0.486 0.599,0 0,0"
             style="fill:#bc2f20;fill-opacity:1;fill-rule:nonzero;stroke:none"
             id="path240"
             inkscape:connector-curvature="0" /></g><g
           id="g242"
           transform="translate(243.7319,231.1371)"><path
             d="m 0,0 c 4.724,14.698 -3.731,30.832 -18.417,35.458 -1.528,0.481 -2.181,-1.916 -0.66,-2.395 C -5.642,28.831 1.901,14.025 -2.395,0.66 -2.885,-0.865 -0.488,-1.518 0,0"
             style="fill:#000000;fill-opacity:1;fill-rule:nonzero;stroke:none"
             id="path244"
             inkscape:connector-curvature="0" /></g><g
           id="g246"
           transform="translate(249.0509,238.0271)"><path
             d="M 0,0 C 1.598,0 1.601,2.483 0,2.483 -1.598,2.483 -1.601,0 0,0"
             style="fill:#000000;fill-opacity:1;fill-rule:nonzero;stroke:none"
             id="path248"
             inkscape:connector-curvature="0" /></g><g
           id="g250"
           transform="translate(232.9092,249.6159)"><path
             d="M 0,0 C 1.598,0 1.601,2.483 0,2.483 -1.598,2.483 -1.601,0 0,0"
             style="fill:#000000;fill-opacity:1;fill-rule:nonzero;stroke:none"
             id="path252"
             inkscape:connector-curvature="0" /></g><g
           id="g254"
           transform="translate(216.4086,262.4286)"><path
             d="M 0,0 C 1.138,-0.037 2.645,0.446 3.276,1.127 3.573,1.445 3.518,1.641 3.5,1.706 3.461,1.824 3.303,1.914 3.033,1.95 2.183,2.071 0.925,1.542 0.509,0.897 0.309,0.587 0.139,0.288 0,0 m 4.6,-2.296 c -0.096,0 -0.189,-0.013 -0.273,-0.04 C 3.767,-2.522 3.289,-3.07 2.865,-4.011 2.842,-4.061 2.821,-4.111 2.8,-4.16 c 0.631,0.05 1.24,0.204 1.742,0.369 0.457,0.148 0.932,0.462 0.963,0.828 C 5.523,-2.766 5.39,-2.617 5.277,-2.527 5.088,-2.378 4.836,-2.296 4.6,-2.296 M 6.805,-6.84 c -0.243,0 -0.524,-0.088 -0.744,-0.228 -0.525,-0.337 -0.9,-0.93 -1.031,-1.63 -0.01,-0.047 -0.016,-0.094 -0.023,-0.141 0.324,0.07 0.644,0.183 0.939,0.299 0.451,0.175 0.904,0.382 1.173,0.709 0.213,0.257 0.273,0.62 0.134,0.813 -0.089,0.123 -0.257,0.178 -0.448,0.178 m 1.255,-6.44 c -1.405,0 -2.791,0.619 -3.598,1.723 -0.312,0.427 -0.527,0.922 -0.638,1.449 -0.055,0.01 -0.112,0.021 -0.168,0.034 -1.271,0.298 -2.295,1.475 -2.545,2.926 -0.102,0.592 -0.091,1.211 0.037,1.866 -0.27,0.065 -0.538,0.152 -0.8,0.27 -0.243,0.108 -1.48,0.728 -1.915,2.197 -0.179,0.603 -0.194,1.253 -0.046,1.945 -1.042,0.469 -1.983,1.349 -2.49,2.379 -0.563,1.139 -0.568,2.337 -0.015,3.467 0.152,0.309 0.524,0.434 0.831,0.285 C -2.98,5.111 -2.852,4.739 -3.002,4.43 -3.479,3.457 -3.259,2.603 -2.989,2.058 -2.629,1.326 -1.956,0.679 -1.221,0.317 -1.041,0.723 -0.812,1.14 -0.535,1.57 0.202,2.713 2.018,3.342 3.196,3.18 3.961,3.08 4.491,2.682 4.69,2.061 4.863,1.439 4.682,0.815 4.186,0.281 3.235,-0.744 1.153,-1.405 -0.417,-1.211 c -0.084,-0.456 -0.071,-0.873 0.04,-1.25 0.293,-0.987 1.195,-1.401 1.234,-1.419 0.205,-0.092 0.417,-0.159 0.635,-0.207 0.071,0.192 0.152,0.386 0.241,0.584 0.574,1.277 1.294,2.043 2.202,2.344 0.695,0.233 1.522,0.073 2.112,-0.395 C 6.54,-1.943 6.794,-2.496 6.743,-3.072 6.669,-3.914 5.99,-4.625 4.928,-4.971 4.216,-5.204 3.319,-5.414 2.388,-5.418 2.27,-5.963 2.254,-6.467 2.333,-6.936 c 0.154,-0.879 0.726,-1.623 1.426,-1.875 0.011,0.113 0.029,0.228 0.05,0.343 0.194,1.034 0.77,1.925 1.581,2.444 0.896,0.579 2.214,0.634 2.868,-0.265 0.535,-0.739 0.314,-1.733 -0.181,-2.333 -0.449,-0.546 -1.073,-0.839 -1.68,-1.075 -0.399,-0.155 -0.835,-0.306 -1.295,-0.39 0.083,-0.268 0.204,-0.519 0.363,-0.737 0.829,-1.135 2.612,-1.554 3.975,-0.918 0.311,0.144 0.679,0.006 0.825,-0.304 0.144,-0.312 0.006,-0.681 -0.304,-0.825 C 9.359,-13.147 8.708,-13.28 8.06,-13.28"
             style="fill:#000000;fill-opacity:1;fill-rule:nonzero;stroke:none"
             id="path256"
             inkscape:connector-curvature="0" /></g><g
           id="g258"
           transform="translate(181.8977,221.7642)"><path
             d="M 0,0 C 0.314,-1.269 1.384,-2.778 2.356,-3.237 2.823,-3.46 3.041,-3.321 3.112,-3.276 3.251,-3.175 3.303,-2.954 3.245,-2.627 3.073,-1.659 2.076,-0.483 1.232,-0.252 0.795,-0.134 0.385,-0.05 0,0 m -3.481,-4.367 c 0.27,-0.698 0.661,-1.335 1.025,-1.841 0.301,-0.419 0.818,-0.869 1.273,-0.77 0.244,0.053 0.37,0.264 0.433,0.43 0.142,0.374 0.09,0.842 -0.126,1.14 -0.398,0.548 -1.155,0.878 -2.312,1.012 -0.099,0.011 -0.196,0.021 -0.293,0.029 m -4.22,-3.938 c 0.194,-0.354 0.443,-0.687 0.688,-0.99 0.397,-0.493 0.75,-0.855 1.172,-1.025 0.323,-0.129 0.793,-0.106 0.988,0.155 0.248,0.34 -0.039,0.988 -0.465,1.342 -0.546,0.455 -1.325,0.657 -2.126,0.56 -0.085,-0.011 -0.171,-0.024 -0.257,-0.042 m -1.988,-6.81 c -0.168,0 -0.337,0.068 -0.459,0.202 -1.548,1.699 -1.745,4.414 -0.45,6.181 0.351,0.477 0.81,0.873 1.339,1.166 -0.012,0.077 -0.02,0.155 -0.026,0.232 -0.11,1.42 0.778,2.872 2.208,3.614 0.602,0.312 1.276,0.506 2.033,0.587 -0.029,0.325 -0.029,0.656 0.011,0.991 0.032,0.288 0.27,1.78 1.656,2.718 0.581,0.394 1.274,0.625 2.067,0.695 0.133,1.263 0.746,2.564 1.669,3.451 C 1.36,5.688 2.613,6.087 3.971,5.887 4.309,5.837 4.543,5.52 4.493,5.18 4.441,4.842 4.161,4.6 3.786,4.658 2.575,4.842 1.717,4.305 1.219,3.828 0.537,3.172 0.065,2.194 -0.062,1.256 0.446,1.204 0.986,1.101 1.558,0.944 2.993,0.555 4.242,-1.137 4.467,-2.411 4.612,-3.227 4.378,-3.898 3.811,-4.301 3.235,-4.677 2.537,-4.698 1.825,-4.359 c -1.405,0.663 -2.802,2.663 -3.099,4.386 -0.55,-0.058 -1.02,-0.218 -1.407,-0.48 -0.973,-0.658 -1.114,-1.786 -1.12,-1.833 -0.031,-0.272 -0.029,-0.545 0,-0.815 0.244,-0.011 0.496,-0.032 0.755,-0.063 1.521,-0.173 2.561,-0.669 3.175,-1.515 0.461,-0.637 0.573,-1.544 0.282,-2.31 -0.24,-0.629 -0.721,-1.067 -1.324,-1.201 -0.89,-0.195 -1.844,0.271 -2.552,1.257 -0.491,0.683 -1.022,1.578 -1.332,2.576 -0.652,-0.057 -1.216,-0.21 -1.707,-0.466 -0.935,-0.485 -1.554,-1.409 -1.547,-2.288 0.148,0.034 0.302,0.06 0.455,0.08 1.148,0.142 2.265,-0.165 3.072,-0.838 0.886,-0.735 1.378,-2.072 0.67,-3.033 -0.581,-0.789 -1.669,-0.884 -2.451,-0.569 -0.708,0.285 -1.224,0.839 -1.675,1.397 -0.312,0.387 -0.631,0.818 -0.877,1.298 -0.291,-0.189 -0.543,-0.423 -0.738,-0.69 -0.945,-1.287 -0.78,-3.355 0.365,-4.609 0.231,-0.254 0.212,-0.647 -0.041,-0.878 -0.119,-0.109 -0.27,-0.162 -0.418,-0.162"
             style="fill:#000000;fill-opacity:1;fill-rule:nonzero;stroke:none"
             id="path260"
             inkscape:connector-curvature="0" /></g><g
           id="g262"
           transform="translate(261.7666,255.1145)"><path
             d="M 0,0 C -0.115,0 -0.226,-0.006 -0.333,-0.021 -0.752,-0.076 -1.004,-0.233 -1.085,-0.483 -1.108,-0.568 -1.198,-0.889 -0.75,-1.371 0.134,-2.323 2.297,-3.004 3.845,-2.852 3.646,-2.404 3.389,-1.937 3.073,-1.449 2.561,-0.656 1.124,0 0,0 m -2.314,-5.466 c -0.344,0 -0.711,-0.12 -0.984,-0.337 -0.18,-0.142 -0.388,-0.379 -0.359,-0.706 0.053,-0.589 0.765,-1.023 1.358,-1.218 0.729,-0.239 1.631,-0.459 2.558,-0.496 -0.06,0.149 -0.125,0.301 -0.193,0.455 -0.564,1.253 -1.212,1.986 -1.979,2.242 -0.124,0.04 -0.261,0.06 -0.401,0.06 m -2.827,-5.832 c -0.303,0 -0.573,-0.09 -0.725,-0.299 -0.25,-0.346 -0.105,-0.91 0.18,-1.256 0.37,-0.448 0.976,-0.726 1.575,-0.959 0.46,-0.179 0.965,-0.352 1.469,-0.437 -0.01,0.144 -0.029,0.288 -0.056,0.431 -0.177,0.945 -0.688,1.747 -1.399,2.205 -0.307,0.195 -0.697,0.315 -1.044,0.315 m -1.614,-8.255 c -0.807,0 -1.618,0.163 -2.367,0.508 -0.31,0.144 -0.447,0.512 -0.304,0.824 0.146,0.311 0.516,0.445 0.825,0.304 1.845,-0.853 4.182,-0.31 5.314,1.237 0.252,0.346 0.437,0.752 0.543,1.188 -0.642,0.096 -1.257,0.304 -1.817,0.522 -0.757,0.295 -1.533,0.659 -2.082,1.328 -0.594,0.718 -0.86,1.903 -0.227,2.776 0.778,1.067 2.361,0.992 3.442,0.297 1,-0.64 1.711,-1.741 1.95,-3.02 0.041,-0.213 0.067,-0.427 0.081,-0.638 1.053,0.263 1.935,1.33 2.157,2.606 0.113,0.664 0.081,1.376 -0.102,2.153 -1.276,0.023 -2.411,0.256 -3.343,0.561 -1.294,0.424 -2.118,1.279 -2.209,2.288 -0.06,0.674 0.241,1.327 0.825,1.79 0.716,0.567 1.713,0.761 2.548,0.48 1.115,-0.37 2.004,-1.323 2.719,-2.91 0.134,-0.301 0.254,-0.594 0.356,-0.881 0.342,0.063 0.677,0.163 0.997,0.307 0.131,0.06 1.29,0.613 1.68,1.932 0.165,0.558 0.171,1.174 0.021,1.848 -1.98,-0.299 -4.692,0.524 -5.912,1.838 -0.76,0.818 -0.754,1.586 -0.615,2.087 0.241,0.75 0.87,1.218 1.78,1.337 C 0.938,1.416 3.206,0.637 4.118,-0.776 4.506,-1.378 4.82,-1.961 5.056,-2.525 6.097,-2.06 7.065,-1.162 7.571,-0.136 7.935,0.598 8.232,1.749 7.589,3.062 7.439,3.371 7.566,3.743 7.874,3.893 8.182,4.039 8.553,3.917 8.705,3.609 9.388,2.21 9.382,0.726 8.685,-0.686 8.029,-2.015 6.797,-3.141 5.445,-3.709 5.66,-4.619 5.654,-5.469 5.421,-6.252 4.874,-8.103 3.245,-8.882 3.062,-8.965 2.684,-9.135 2.294,-9.256 1.901,-9.337 c 0.191,-0.882 0.217,-1.709 0.081,-2.494 -0.309,-1.797 -1.567,-3.248 -3.128,-3.614 -0.11,-0.026 -0.219,-0.045 -0.327,-0.061 -0.129,-0.695 -0.404,-1.349 -0.812,-1.906 -1.002,-1.373 -2.725,-2.141 -4.47,-2.141"
             style="fill:#000000;fill-opacity:1;fill-rule:nonzero;stroke:none"
             id="path264"
             inkscape:connector-curvature="0" /></g><g
           id="g266"
           transform="translate(238.6828,232.2561)"><path
             d="m 0,0 c 0.719,5.528 -1.878,11.082 -7.266,13.305 -6.493,2.679 -12.572,-1.611 -16.535,-6.5 -5.982,-7.378 -10.021,-16.997 -12.798,-26.012 -3.587,-11.645 -4.141,-24.429 -12.31,-34.128 -1.023,-1.215 0.725,-2.98 1.756,-1.756 7.883,9.359 9.01,21.106 12.159,32.513 2.101,7.611 5.14,14.958 9.129,21.779 2.249,3.848 4.781,8.061 8.624,10.523 C -9.83,14.472 -1.385,8.45 -2.483,0 -2.689,-1.58 -0.204,-1.565 0,0"
             style="fill:#000000;fill-opacity:1;fill-rule:nonzero;stroke:none"
             id="path268"
             inkscape:connector-curvature="0" /></g><g
           id="g270"
           transform="translate(276.6262,221.8855)"><path
             d="m 0,0 c -0.016,-0.963 -0.088,-1.939 0.019,-2.897 0.02,-0.175 0.252,-0.175 0.272,0 C 0.398,-1.939 0.326,-0.963 0.31,0 0.307,0.2 0.003,0.2 0,0"
             style="fill:#bc2f20;fill-opacity:1;fill-rule:nonzero;stroke:none"
             id="path272"
             inkscape:connector-curvature="0" /></g><g
           id="g274"
           transform="translate(207.5416,217.0091)"><path
             d="m 0,0 c -0.905,-1.479 -1.209,-3.516 -0.649,-5.155 0.11,-0.32 0.631,-0.38 0.711,0 0.336,1.596 0.404,3.416 0.336,5.047 C 0.389,0.103 0.113,0.184 0,0"
             style="fill:#bc2f20;fill-opacity:1;fill-rule:nonzero;stroke:none"
             id="path276"
             inkscape:connector-curvature="0" /></g><g
           id="g278"
           transform="translate(275.195,218.0892)"><path
             d="m 0,0 c 0.196,-0.261 0.379,-0.464 0.641,-0.666 0.129,-0.1 0.343,0.024 0.244,0.188 C 0.717,-0.201 0.543,0.01 0.305,0.235 0.152,0.379 -0.138,0.183 0,0"
             style="fill:#bc2f20;fill-opacity:1;fill-rule:nonzero;stroke:none"
             id="path280"
             inkscape:connector-curvature="0" /></g><g
           id="g282"
           transform="translate(278.2537,218.7873)"><path
             d="M 0,0 C -0.084,-1.001 -0.023,-1.997 -0.037,-3.001 -0.05,-3.998 -0.183,-5.015 -0.069,-6.006 -0.041,-6.245 0.328,-6.347 0.388,-6.068 0.784,-4.235 0.566,-1.795 0.076,0.01 0.064,0.055 0.004,0.042 0,0"
             style="fill:#bc2f20;fill-opacity:1;fill-rule:nonzero;stroke:none"
             id="path284"
             inkscape:connector-curvature="0" /></g><g
           id="g286"
           transform="translate(202.7901,148.6582)"><path
             d="m 0,0 c -0.111,-0.575 -0.161,-1.098 -0.101,-1.686 0.028,-0.274 0.399,-0.275 0.427,0 C 0.385,-1.101 0.335,-0.575 0.225,0 0.203,0.111 0.021,0.111 0,0"
             style="fill:#bc2f20;fill-opacity:1;fill-rule:nonzero;stroke:none"
             id="path288"
             inkscape:connector-curvature="0" /></g><g
           id="g290"
           transform="translate(204.0082,148.2135)"><path
             d="m 0,0 c -0.077,-0.9 -0.243,-1.849 -0.051,-2.742 0.039,-0.185 0.334,-0.185 0.374,0 C 0.514,-1.849 0.349,-0.9 0.272,0 0.257,0.174 0.015,0.175 0,0"
             style="fill:#bc2f20;fill-opacity:1;fill-rule:nonzero;stroke:none"
             id="path292"
             inkscape:connector-curvature="0" /></g><g
           id="g294"
           transform="translate(205.3832,145.15)"><path
             d="M 0,0 C -0.136,-0.609 -0.016,-1.379 0.212,-1.958 0.291,-2.157 0.581,-2.135 0.593,-1.906 0.627,-1.283 0.501,-0.513 0.177,0.023 0.136,0.092 0.019,0.084 0,0"
             style="fill:#bc2f20;fill-opacity:1;fill-rule:nonzero;stroke:none"
             id="path296"
             inkscape:connector-curvature="0" /></g><g
           id="g298"
           transform="translate(203.0701,144.4968)"><path
             d="M 0,0 C 0.015,-0.425 0.155,-0.73 0.389,-1.088 0.472,-1.216 0.676,-1.137 0.637,-0.984 0.532,-0.575 0.4,-0.256 0.099,0.041 0.065,0.075 -0.002,0.051 0,0"
             style="fill:#bc2f20;fill-opacity:1;fill-rule:nonzero;stroke:none"
             id="path300"
             inkscape:connector-curvature="0" /></g><g
           id="g302"
           transform="translate(241.0447,207.8133)"><path
             d="m 0,0 c -0.024,-0.704 -0.154,-1.469 0.069,-2.147 0.09,-0.276 0.47,-0.276 0.561,0 C 0.853,-1.469 0.723,-0.704 0.698,0 0.683,0.449 0.015,0.45 0,0"
             style="fill:#bc2f20;fill-opacity:1;fill-rule:nonzero;stroke:none"
             id="path304"
             inkscape:connector-curvature="0" /></g><g
           id="g306"
           transform="translate(241.7431,207.8133)"><path
             d="m 0,0 c -0.059,-0.476 -0.156,-0.862 -0.009,-1.319 0.089,-0.276 0.472,-0.277 0.561,0 C 0.697,-0.868 0.601,-0.467 0.543,0 0.5,0.348 0.043,0.349 0,0"
             style="fill:#bc2f20;fill-opacity:1;fill-rule:nonzero;stroke:none"
             id="path308"
             inkscape:connector-curvature="0" /></g><g
           id="g310"
           transform="translate(242.2788,211.083)"><path
             d="m 0,0 c 0.229,-1.286 0.075,-2.683 0.401,-3.937 0.044,-0.169 0.29,-0.163 0.337,0 0.357,1.247 -0.1,2.815 -0.439,4.02 C 0.245,0.278 -0.035,0.194 0,0"
             style="fill:#bc2f20;fill-opacity:1;fill-rule:nonzero;stroke:none"
             id="path312"
             inkscape:connector-curvature="0" /></g><g
           id="g314"
           transform="translate(241.1503,202.7061)"><path
             d="M 0,0 C -0.148,-0.541 -0.18,-1.096 0.25,-1.495 0.385,-1.62 0.667,-1.543 0.647,-1.33 0.609,-0.912 0.45,-0.591 0.524,-0.144 0.579,0.193 0.095,0.344 0,0"
             style="fill:#bc2f20;fill-opacity:1;fill-rule:nonzero;stroke:none"
             id="path316"
             inkscape:connector-curvature="0" /></g><g
           id="g318"
           transform="translate(205.8368,195.197)"><path
             d="M 0,0 C 0.069,-0.561 0.123,-1.069 0.458,-1.541 0.567,-1.696 0.812,-1.645 0.819,-1.443 0.841,-0.865 0.612,-0.41 0.362,0.098 0.28,0.263 -0.024,0.192 0,0"
             style="fill:#bc2f20;fill-opacity:1;fill-rule:nonzero;stroke:none"
             id="path320"
             inkscape:connector-curvature="0" /></g><g
           id="g322"
           transform="translate(206.6146,195.9999)"><path
             d="M 0,0 C 0.309,-0.309 0.274,-0.527 0.416,-0.873 0.482,-1.033 0.75,-1.134 0.842,-0.929 1.075,-0.406 0.833,0.048 0.412,0.411 0.131,0.654 -0.268,0.268 0,0"
             style="fill:#bc2f20;fill-opacity:1;fill-rule:nonzero;stroke:none"
             id="path324"
             inkscape:connector-curvature="0" /></g><g
           id="g326"
           transform="translate(216.0303,224.7827)"><path
             d="m 0,0 c -0.089,-0.854 -0.201,-1.681 -0.071,-2.535 0.029,-0.185 0.346,-0.185 0.375,0 C 0.434,-1.681 0.322,-0.853 0.233,0 0.217,0.149 0.016,0.15 0,0"
             style="fill:#bc2f20;fill-opacity:1;fill-rule:nonzero;stroke:none"
             id="path328"
             inkscape:connector-curvature="0" /></g><g
           id="g330"
           transform="translate(216.6903,224.1755)"><path
             d="m 0,0 c 0.041,-1.032 -0.116,-2.161 0.06,-3.173 0.04,-0.226 0.347,-0.177 0.412,0 0.356,0.98 0.112,2.238 -0.167,3.214 C 0.258,0.206 -0.007,0.179 0,0"
             style="fill:#bc2f20;fill-opacity:1;fill-rule:nonzero;stroke:none"
             id="path332"
             inkscape:connector-curvature="0" /></g><g
           id="g334"
           transform="translate(226.4746,172.4885)"><path
             d="m 0,0 c -0.606,-1.485 -0.689,-3.066 0.118,-4.479 0.099,-0.174 0.365,-0.056 0.319,0.135 -0.342,1.407 -0.462,2.832 0.012,4.22 C 0.548,0.165 0.11,0.27 0,0"
             style="fill:#bc2f20;fill-opacity:1;fill-rule:nonzero;stroke:none"
             id="path336"
             inkscape:connector-curvature="0" /></g><g
           id="g338"
           transform="translate(223.7778,172.8397)"><path
             d="m 0,0 c -0.021,-0.33 -0.041,-0.563 0.046,-0.879 0.051,-0.185 0.323,-0.185 0.374,0 C 0.507,-0.563 0.486,-0.33 0.466,0 0.447,0.299 0.019,0.3 0,0"
             style="fill:#bc2f20;fill-opacity:1;fill-rule:nonzero;stroke:none"
             id="path340"
             inkscape:connector-curvature="0" /></g><g
           id="g342"
           transform="translate(266.798,196.711)"><path
             d="m 0,0 c -0.195,-0.674 -0.32,-1.243 -0.347,-1.941 -0.007,-0.201 0.311,-0.304 0.398,-0.107 0.283,0.637 0.425,1.192 0.548,1.883 C 0.667,0.222 0.113,0.39 0,0"
             style="fill:#bc2f20;fill-opacity:1;fill-rule:nonzero;stroke:none"
             id="path344"
             inkscape:connector-curvature="0" /></g><g
           id="g346"
           transform="translate(267.7368,194.6104)"><path
             d="M 0,0 C -0.119,-0.697 -0.401,-1.354 -0.519,-2.04 -0.557,-2.26 -0.276,-2.5 -0.097,-2.285 0.425,-1.657 0.473,-0.77 0.299,0 0.267,0.143 0.026,0.152 0,0"
             style="fill:#bc2f20;fill-opacity:1;fill-rule:nonzero;stroke:none"
             id="path348"
             inkscape:connector-curvature="0" /></g><g
           id="g350"
           transform="translate(302.607,196.479)"><path
             d="m 0,0 c -0.149,-0.255 -0.196,-0.366 -0.254,-0.656 -0.042,-0.215 -0.013,-0.465 0.164,-0.618 0.215,-0.188 0.333,-0.226 0.618,-0.164 0.219,0.047 0.379,0.24 0.444,0.444 0.089,0.282 0.107,0.409 0.099,0.704 C 1.056,0.272 0.293,0.502 0,0"
             style="fill:#bc2f20;fill-opacity:1;fill-rule:nonzero;stroke:none"
             id="path352"
             inkscape:connector-curvature="0" /></g><g
           id="g354"
           transform="translate(299.8035,194.3031)"><path
             d="m 0,0 c -0.37,-0.469 -0.618,-0.971 -0.257,-1.514 0.115,-0.171 0.408,-0.162 0.462,0.061 0.101,0.424 0.013,0.838 0.119,1.264 C 0.367,-0.016 0.127,0.161 0,0"
             style="fill:#bc2f20;fill-opacity:1;fill-rule:nonzero;stroke:none"
             id="path356"
             inkscape:connector-curvature="0" /></g><g
           id="g358"
           transform="translate(368.4098,198.4314)"><path
             d="m 0,0 c 0.07,-0.412 -0.006,-0.738 -0.112,-1.131 -0.054,-0.197 0.21,-0.294 0.319,-0.134 0.282,0.412 0.338,0.84 0.288,1.332 C 0.459,0.428 -0.062,0.364 0,0"
             style="fill:#bc2f20;fill-opacity:1;fill-rule:nonzero;stroke:none"
             id="path360"
             inkscape:connector-curvature="0" /></g><g
           id="g362"
           transform="translate(370.0161,197.88)"><path
             d="m 0,0 c -0.055,-0.453 -0.143,-0.836 -0.034,-1.278 0.032,-0.129 0.23,-0.129 0.262,0 C 0.336,-0.841 0.248,-0.446 0.194,0 0.179,0.125 0.015,0.125 0,0"
             style="fill:#bc2f20;fill-opacity:1;fill-rule:nonzero;stroke:none"
             id="path364"
             inkscape:connector-curvature="0" /></g><g
           id="g366"
           transform="translate(371.0948,153.0039)"><path
             d="m 0,0 c -0.33,-0.464 -0.713,-0.912 -0.934,-1.438 -0.067,-0.158 0.186,-0.303 0.292,-0.17 0.354,0.446 0.562,0.998 0.81,1.51 C 0.222,0.015 0.072,0.102 0,0"
             style="fill:#bc2f20;fill-opacity:1;fill-rule:nonzero;stroke:none"
             id="path368"
             inkscape:connector-curvature="0" /></g><g
           id="g370"
           transform="translate(368.5285,154.2148)"><path
             d="m 0,0 c -0.007,-0.552 -0.027,-1.104 0,-1.655 0.009,-0.175 0.263,-0.175 0.272,0 0.027,0.55 0.007,1.103 0,1.655 C 0.269,0.175 0.002,0.175 0,0"
             style="fill:#bc2f20;fill-opacity:1;fill-rule:nonzero;stroke:none"
             id="path372"
             inkscape:connector-curvature="0" /></g><g
           id="g374"
           transform="translate(307.3795,150.0304)"><path
             d="M 0,0 C 0.258,-0.949 0.979,-2.087 1.851,-2.577 2.073,-2.701 2.402,-2.492 2.307,-2.226 1.988,-1.328 1.211,-0.35 0.519,0.302 0.296,0.512 -0.083,0.305 0,0"
             style="fill:#bc2f20;fill-opacity:1;fill-rule:nonzero;stroke:none"
             id="path376"
             inkscape:connector-curvature="0" /></g><g
           id="g378"
           transform="translate(304.9982,147.2809)"><path
             d="M 0,0 C 0.247,-0.589 0.441,-1.194 0.843,-1.695 1.004,-1.896 1.267,-1.67 1.232,-1.468 1.126,-0.863 0.798,-0.324 0.532,0.224 0.39,0.516 -0.128,0.306 0,0"
             style="fill:#bc2f20;fill-opacity:1;fill-rule:nonzero;stroke:none"
             id="path380"
             inkscape:connector-curvature="0" /></g><g
           id="g382"
           transform="translate(359.7402,176.3137)"><path
             d="m 0,0 c -0.652,-0.444 -1.081,-1.518 -0.285,-2.045 0.144,-0.096 0.398,-0.008 0.427,0.173 0.084,0.527 -0.052,0.945 0.309,1.421 C 0.652,-0.188 0.262,0.179 0,0"
             style="fill:#bc2f20;fill-opacity:1;fill-rule:nonzero;stroke:none"
             id="path384"
             inkscape:connector-curvature="0" /></g><g
           id="g386"
           transform="translate(309.6601,290.1791)"><path
             d="m 0,0 c 0.023,4.202 -3.28,7.579 -7.433,7.6 -4.096,0.02 -7.482,-3.352 -7.487,-7.455 -0.006,-4.101 3.334,-7.422 7.486,-7.442 C -3.427,-7.317 -0.022,-3.975 0,0 m -9.266,12.789 c 0.296,-0.59 0.585,-1.185 0.899,-1.765 0.042,-0.078 0.211,-0.119 0.323,-0.123 0.507,-0.02 1.017,-0.046 1.521,-0.014 0.178,0.011 0.406,0.139 0.506,0.286 0.278,0.404 0.513,0.84 0.741,1.275 0.116,0.223 0.251,0.291 0.493,0.219 0.653,-0.195 1.31,-0.376 1.953,-0.558 0,-0.603 0.015,-1.187 -0.006,-1.77 -0.012,-0.316 0.037,-0.54 0.37,-0.672 0.277,-0.11 0.564,-0.254 0.777,-0.456 C -1.226,8.773 -0.822,8.869 -0.357,9.205 0.026,9.481 0.459,9.688 0.749,9.856 1.389,9.292 1.982,8.768 2.586,8.236 2.241,7.674 1.94,7.154 1.606,6.656 1.433,6.398 1.398,6.204 1.605,5.939 1.817,5.666 2.021,5.361 2.127,5.037 2.29,4.542 2.606,4.443 3.065,4.486 3.459,4.523 3.859,4.494 4.254,4.526 4.574,4.552 4.694,4.416 4.763,4.118 4.9,3.535 5.081,2.961 5.243,2.384 V 2.193 C 4.687,1.887 4.121,1.595 3.58,1.264 3.453,1.187 3.338,0.982 3.332,0.831 3.307,0.245 3.13,-0.461 3.388,-0.898 3.656,-1.354 4.355,-1.564 4.88,-1.857 5.111,-1.987 5.199,-2.123 5.118,-2.388 4.95,-2.934 4.794,-3.484 4.654,-4.038 4.587,-4.304 4.452,-4.394 4.183,-4.373 3.708,-4.336 3.231,-4.335 2.756,-4.302 2.503,-4.285 2.361,-4.357 2.241,-4.603 2.026,-5.044 1.771,-5.469 1.494,-5.875 1.346,-6.092 1.33,-6.244 1.471,-6.467 1.79,-6.973 2.078,-7.499 2.403,-8.057 2.213,-8.226 2.044,-8.371 1.881,-8.521 1.705,-8.682 1.53,-8.845 1.361,-9.013 0.664,-9.707 0.632,-9.753 -0.16,-9.181 c -0.666,0.481 -1.157,0.492 -1.922,0.076 -0.821,-0.446 -1.073,-0.916 -0.99,-1.789 0.083,-0.872 0.02,-0.887 -0.831,-1.101 -0.489,-0.123 -1.069,-0.416 -1.455,-0.257 -0.358,0.146 -0.537,0.779 -0.747,1.22 -0.186,0.387 -0.399,0.584 -0.872,0.511 -0.402,-0.062 -0.825,-0.019 -1.236,0.02 -0.28,0.026 -0.433,-0.065 -0.561,-0.31 -0.266,-0.504 -0.562,-0.992 -0.859,-1.512 -0.674,0.19 -1.324,0.394 -1.986,0.551 -0.289,0.068 -0.341,0.215 -0.329,0.468 0.022,0.461 0.048,0.924 0.021,1.382 -0.01,0.166 -0.13,0.38 -0.267,0.473 -0.447,0.3 -0.916,0.571 -1.396,0.816 -0.133,0.068 -0.361,0.064 -0.496,-0.005 -0.44,-0.22 -0.85,-0.497 -1.287,-0.724 -0.106,-0.055 -0.324,-0.056 -0.397,0.015 -0.522,0.506 -1.019,1.038 -1.528,1.564 0.312,0.508 0.621,0.971 0.883,1.46 0.075,0.14 0.075,0.385 0.003,0.529 -0.239,0.483 -0.544,0.932 -0.785,1.414 -0.12,0.239 -0.265,0.31 -0.517,0.302 -0.551,-0.016 -1.102,-0.005 -1.636,-0.005 -0.031,0.064 -0.05,0.091 -0.058,0.121 -0.118,0.445 -0.236,0.89 -0.351,1.336 -0.222,0.865 -0.246,0.923 0.589,1.281 0.748,0.32 1.101,0.75 0.907,1.577 -0.053,0.223 -0.023,0.481 0.025,0.71 0.092,0.436 -0.091,0.662 -0.471,0.846 -0.409,0.198 -0.981,0.387 -1.121,0.728 -0.14,0.343 0.154,0.87 0.276,1.312 0.259,0.945 0.264,0.945 1.233,0.936 0.223,-0.002 0.447,0.005 0.668,-0.017 0.253,-0.026 0.398,0.057 0.523,0.295 0.259,0.49 0.58,0.948 0.842,1.437 0.071,0.133 0.086,0.361 0.019,0.491 -0.257,0.503 -0.557,0.984 -0.746,1.308 0.585,0.672 1.103,1.268 1.612,1.854 0.432,-0.262 0.82,-0.456 1.159,-0.715 0.401,-0.306 0.737,-0.37 1.165,-0.027 0.304,0.243 0.686,0.398 1.05,0.554 0.267,0.115 0.4,0.255 0.376,0.565 -0.033,0.427 0.003,0.86 -0.034,1.286 -0.029,0.326 0.101,0.442 0.399,0.513 0.583,0.139 1.157,0.318 1.735,0.481 z"
             style="fill:#000000;fill-opacity:1;fill-rule:nonzero;stroke:none"
             id="path388"
             inkscape:connector-curvature="0" /></g><g
           id="g390"
           transform="translate(191.7293,293.3194)"><path
             d="m 0,0 c -0.245,-3.452 2.688,-6.612 6.37,-6.862 3.524,-0.239 6.67,2.673 6.908,6.395 C 13.503,3.059 10.593,6.154 6.837,6.382 3.352,6.595 0.263,3.711 0,0 m 15.544,4.398 c -0.558,-0.833 -0.195,-1.759 0.771,-1.984 0.313,-0.073 0.624,-0.15 0.936,-0.226 1.796,-0.433 1.782,-0.433 1.844,-2.26 0.018,-0.5 -0.106,-0.794 -0.626,-0.937 -0.616,-0.171 -1.209,-0.423 -1.811,-0.644 -1.003,-0.367 -1.262,-1.368 -0.563,-2.167 0.211,-0.242 0.421,-0.484 0.632,-0.727 1.172,-1.348 1.159,-1.339 0.104,-2.845 -0.288,-0.412 -0.566,-0.566 -1.063,-0.387 -0.627,0.227 -1.279,0.386 -1.921,0.569 -0.835,0.238 -1.724,-0.453 -1.675,-1.316 0.042,-0.721 0.125,-1.439 0.166,-2.16 0.012,-0.202 0.005,-0.542 -0.1,-0.592 -0.675,-0.316 -1.363,-0.673 -2.083,-0.789 -0.257,-0.04 -0.628,0.543 -0.922,0.864 -0.234,0.256 -0.431,0.546 -0.645,0.821 -0.887,1.14 -1.839,1.084 -2.583,-0.149 -0.304,-0.504 -0.601,-1.012 -0.918,-1.507 -0.096,-0.149 -0.273,-0.388 -0.369,-0.369 -0.73,0.148 -1.496,0.255 -2.146,0.582 -0.244,0.123 -0.242,0.793 -0.294,1.221 -0.051,0.422 -0.032,0.854 -0.038,1.282 -0.015,1 -0.993,1.663 -1.9,1.284 -0.616,-0.258 -1.223,-0.54 -1.848,-0.775 -0.197,-0.075 -0.547,-0.131 -0.642,-0.026 -0.503,0.55 -1.074,1.1 -1.349,1.763 -0.118,0.286 0.416,0.847 0.665,1.276 0.135,0.231 0.294,0.448 0.444,0.669 0.777,1.143 0.425,2.037 -0.931,2.359 -0.572,0.136 -1.149,0.254 -1.717,0.405 -0.162,0.043 -0.42,0.162 -0.431,0.267 -0.079,0.768 -0.207,1.557 -0.093,2.304 0.038,0.252 0.722,0.425 1.128,0.595 0.443,0.187 0.908,0.319 1.357,0.492 0.662,0.254 0.949,1.356 0.493,1.894 -0.586,0.69 -1.183,1.371 -1.804,2.089 0.4,0.62 0.742,1.23 1.171,1.77 0.146,0.184 0.535,0.303 0.777,0.257 C -1.76,7.173 -1.099,6.942 -0.43,6.754 0.503,6.492 1.302,7.172 1.195,8.134 1.166,8.4 1.132,8.665 1.116,8.932 c -0.123,1.989 -0.122,2.008 1.858,2.525 0.228,0.06 0.614,-0.074 0.777,-0.254 0.503,-0.552 0.906,-1.195 1.406,-1.751 0.18,-0.2 0.512,-0.311 0.794,-0.366 1.017,-0.199 1.203,0.689 1.57,1.288 1.091,1.779 1.084,1.8 3.036,1.047 0.218,-0.084 0.449,-0.415 0.477,-0.654 0.082,-0.715 0.02,-1.447 0.11,-2.161 0.04,-0.313 0.271,-0.632 0.487,-0.887 0.565,-0.669 1.16,-0.211 1.728,0.023 2.246,0.926 2.244,0.93 3.639,-1.202 C 16.505,5.814 16.02,5.109 15.544,4.398"
             style="fill:#000000;fill-opacity:1;fill-rule:nonzero;stroke:none"
             id="path392"
             inkscape:connector-curvature="0" /></g><g
           id="g394"
           transform="translate(240.1362,280.8954)"><path
             d="m 0,0 c -0.003,-3.069 2.537,-5.591 5.633,-5.592 3.038,-0.001 5.577,2.52 5.593,5.552 C 11.243,3.054 8.741,5.567 5.634,5.577 2.524,5.587 0.003,3.092 0,0 m 14.059,0.921 c -0.532,-0.358 -0.474,-1.743 0.148,-2.001 0.867,-0.36 1.003,-0.889 0.631,-1.672 -0.089,-0.188 -0.137,-0.397 -0.205,-0.599 -0.711,-0.147 -1.46,0.275 -2.028,-0.683 -0.572,-0.964 0.181,-1.41 0.425,-2.274 C 12.845,-6.446 12.534,-6.595 12.339,-6.839 11.916,-7.368 11.477,-7.44 11.003,-6.97 10.401,-6.375 9.959,-6.911 9.435,-7.111 8.886,-7.321 8.892,-7.739 8.96,-8.154 9.075,-8.862 8.72,-9.085 8.107,-9.203 7.548,-9.311 7.04,-9.521 6.768,-8.741 6.671,-8.462 6.369,-8.103 6.113,-8.059 5.349,-7.927 4.548,-7.892 4.254,-8.901 4.206,-9.068 4.056,-9.205 3.943,-9.371 c -0.31,0.088 -0.592,0.166 -0.871,0.248 -0.274,0.081 -0.546,0.167 -0.823,0.252 0,0.404 0.012,0.751 -0.002,1.098 -0.028,0.66 -1.309,1.431 -1.817,1.031 -0.758,-0.597 -1.268,-0.376 -1.762,0.298 -0.125,0.17 -0.287,0.313 -0.451,0.489 0.159,0.264 0.31,0.514 0.46,0.764 0.43,0.717 -0.269,2.09 -1.088,2.013 -0.845,-0.081 -1.148,0.287 -1.227,1.03 -0.025,0.234 -0.092,0.463 -0.14,0.693 0.121,0.088 0.199,0.164 0.292,0.21 0.539,0.274 1.013,0.467 0.993,1.305 -0.019,0.76 -0.224,1.162 -0.875,1.472 -0.732,0.348 -0.136,0.88 -0.096,1.321 0.034,0.384 0.172,0.703 0.713,0.637 0.336,-0.041 0.816,-0.014 1.023,0.192 0.784,0.782 0.803,1.269 0.272,2.217 -0.063,0.112 -0.109,0.234 -0.177,0.384 0.438,0.414 0.858,0.812 1.282,1.214 C 0.33,7.191 0.785,6.626 1.705,7.087 2.721,7.595 2.313,8.36 2.465,9.086 3.027,9.226 3.591,9.367 4.192,9.516 4.363,9.209 4.569,8.948 4.663,8.651 4.896,7.917 5.501,8.177 5.99,8.089 6.492,7.998 6.754,8.25 6.901,8.662 7.163,9.391 7.617,9.568 8.311,9.238 8.565,9.117 8.851,9.062 9.12,8.977 9.12,8.597 9.178,8.264 9.108,7.96 8.945,7.243 9.549,7.157 9.919,6.853 10.303,6.538 10.654,6.569 10.995,6.866 11.642,7.432 12.166,7.309 12.637,6.635 12.783,6.426 12.98,6.251 13.111,6.108 12.939,5.346 12.081,4.955 12.629,3.957 13.177,2.959 13.944,3.437 14.68,3.251 15.264,1.73 15.264,1.73 14.059,0.921"
             style="fill:#000000;fill-opacity:1;fill-rule:nonzero;stroke:none"
             id="path396"
             inkscape:connector-curvature="0" /></g><g
           id="g398"
           transform="translate(263.2034,342.9436)"><path
             d="m 0,0 c -1.452,0.011 -2.671,-1.212 -2.644,-2.656 0.026,-1.43 1.212,-2.583 2.645,-2.571 1.449,0.012 2.586,1.161 2.584,2.611 C 2.583,-1.171 1.437,-0.011 0,0 M 2.182,-7.601 C 1.67,-7.808 1.448,-7.544 1.16,-7.259 c -0.751,0.745 -1.8,0.754 -2.67,0.006 -0.322,-0.276 -0.576,-0.466 -1.041,-0.199 -0.428,0.246 -0.417,0.524 -0.37,0.923 0.128,1.069 -0.594,1.993 -1.614,2.252 -0.289,0.073 -0.606,0.353 -0.746,0.624 -0.215,0.414 0.027,0.719 0.429,0.964 0.892,0.545 1.151,1.646 0.737,2.588 -0.111,0.253 -0.086,0.658 0.045,0.903 0.183,0.343 0.469,0.56 0.986,0.358 1.045,-0.407 1.94,0.035 2.482,1.004 0.129,0.231 0.52,0.455 0.777,0.441 C 0.472,2.588 0.898,2.373 1.017,2.125 1.546,1.029 2.213,0.671 3.372,0.866 3.645,0.911 4.016,0.674 4.268,0.474 4.593,0.218 4.607,-0.102 4.351,-0.499 3.728,-1.462 3.898,-2.32 4.859,-3.001 5.28,-3.3 5.261,-3.589 5.175,-4.02 5.079,-4.496 4.81,-4.602 4.394,-4.641 3.355,-4.74 2.684,-5.508 2.719,-6.612 2.772,-6.995 2.75,-7.371 2.182,-7.601"
             style="fill:#000000;fill-opacity:1;fill-rule:nonzero;stroke:none"
             id="path400"
             inkscape:connector-curvature="0" /></g><g
           id="g402"
           transform="translate(87.8316,145.5914)"><path
             d="m 0,0 c -1.452,0.011 -2.671,-1.212 -2.644,-2.656 0.026,-1.43 1.212,-2.583 2.645,-2.571 1.449,0.012 2.586,1.161 2.584,2.611 C 2.583,-1.171 1.437,-0.011 0,0 M 2.182,-7.601 C 1.67,-7.808 1.448,-7.544 1.16,-7.259 c -0.751,0.745 -1.8,0.754 -2.67,0.006 -0.322,-0.276 -0.576,-0.466 -1.041,-0.199 -0.428,0.246 -0.417,0.524 -0.37,0.923 0.128,1.069 -0.594,1.993 -1.614,2.252 -0.289,0.073 -0.606,0.353 -0.746,0.624 -0.215,0.414 0.027,0.719 0.429,0.964 0.893,0.545 1.151,1.646 0.737,2.588 -0.111,0.253 -0.086,0.658 0.045,0.903 0.183,0.343 0.469,0.56 0.986,0.358 1.045,-0.407 1.94,0.035 2.482,1.004 0.129,0.231 0.52,0.455 0.777,0.441 C 0.472,2.588 0.898,2.373 1.018,2.125 1.546,1.029 2.213,0.671 3.372,0.866 3.645,0.911 4.016,0.674 4.268,0.474 4.593,0.218 4.607,-0.102 4.351,-0.499 3.728,-1.462 3.898,-2.32 4.859,-3.001 5.28,-3.3 5.261,-3.589 5.175,-4.02 5.079,-4.496 4.81,-4.601 4.394,-4.641 3.355,-4.74 2.684,-5.508 2.719,-6.612 2.772,-6.995 2.75,-7.371 2.182,-7.601"
             style="fill:#000000;fill-opacity:1;fill-rule:nonzero;stroke:none"
             id="path404"
             inkscape:connector-curvature="0" /></g><g
           id="g406"
           transform="translate(250.3853,318.9631)"><path
             d="M 0,0 C -0.115,0 -0.226,-0.007 -0.333,-0.021 -0.752,-0.076 -1.004,-0.233 -1.085,-0.483 -1.108,-0.567 -1.198,-0.889 -0.75,-1.371 0.134,-2.323 2.297,-3.004 3.845,-2.852 3.646,-2.404 3.389,-1.937 3.073,-1.449 2.561,-0.656 1.124,0 0,0 m -2.314,-5.466 c -0.344,0 -0.711,-0.12 -0.984,-0.337 -0.18,-0.142 -0.388,-0.379 -0.359,-0.706 0.053,-0.589 0.765,-1.024 1.358,-1.217 0.729,-0.24 1.631,-0.46 2.558,-0.497 -0.06,0.149 -0.125,0.301 -0.193,0.454 -0.564,1.254 -1.212,1.988 -1.979,2.243 -0.124,0.04 -0.261,0.06 -0.401,0.06 m -2.827,-5.832 c -0.303,0 -0.573,-0.09 -0.724,-0.299 -0.251,-0.346 -0.106,-0.91 0.179,-1.256 0.37,-0.448 0.976,-0.726 1.575,-0.959 0.46,-0.179 0.965,-0.352 1.469,-0.436 -0.01,0.143 -0.029,0.287 -0.056,0.43 -0.177,0.945 -0.687,1.747 -1.399,2.205 -0.307,0.195 -0.697,0.315 -1.044,0.315 m -1.614,-8.255 c -0.807,0 -1.618,0.163 -2.367,0.508 -0.31,0.144 -0.447,0.512 -0.304,0.824 0.146,0.311 0.516,0.445 0.825,0.304 1.845,-0.853 4.182,-0.31 5.314,1.237 0.252,0.346 0.437,0.752 0.543,1.188 -0.641,0.096 -1.257,0.304 -1.817,0.522 -0.757,0.295 -1.533,0.659 -2.082,1.328 -0.594,0.718 -0.86,1.903 -0.227,2.776 0.778,1.067 2.361,0.992 3.442,0.297 1,-0.64 1.711,-1.741 1.95,-3.02 0.041,-0.213 0.067,-0.427 0.081,-0.638 1.053,0.263 1.935,1.33 2.157,2.606 0.113,0.664 0.081,1.376 -0.102,2.153 -1.276,0.023 -2.411,0.256 -3.344,0.561 -1.293,0.424 -2.117,1.279 -2.208,2.288 -0.06,0.674 0.241,1.327 0.825,1.79 0.716,0.567 1.713,0.761 2.548,0.48 1.115,-0.37 2.004,-1.323 2.719,-2.91 0.134,-0.301 0.254,-0.594 0.356,-0.881 0.342,0.063 0.677,0.163 0.997,0.307 0.131,0.06 1.29,0.613 1.68,1.932 0.165,0.558 0.171,1.174 0.021,1.848 -1.98,-0.299 -4.692,0.524 -5.912,1.838 -0.76,0.818 -0.754,1.586 -0.615,2.087 0.241,0.75 0.87,1.218 1.78,1.337 C 0.938,1.416 3.206,0.637 4.118,-0.776 4.506,-1.378 4.82,-1.961 5.056,-2.525 6.097,-2.06 7.065,-1.163 7.571,-0.136 7.935,0.598 8.233,1.749 7.589,3.062 7.439,3.371 7.566,3.743 7.874,3.893 8.182,4.039 8.553,3.917 8.705,3.609 9.389,2.21 9.382,0.726 8.685,-0.686 8.029,-2.015 6.797,-3.141 5.445,-3.709 5.66,-4.619 5.654,-5.47 5.421,-6.252 4.874,-8.103 3.245,-8.882 3.062,-8.965 2.684,-9.135 2.294,-9.256 1.901,-9.337 c 0.191,-0.882 0.217,-1.709 0.081,-2.494 -0.309,-1.797 -1.567,-3.248 -3.128,-3.614 -0.11,-0.026 -0.219,-0.045 -0.327,-0.061 -0.129,-0.695 -0.404,-1.349 -0.812,-1.906 -1.002,-1.373 -2.725,-2.141 -4.47,-2.141"
             style="fill:#000000;fill-opacity:1;fill-rule:nonzero;stroke:none"
             id="path408"
             inkscape:connector-curvature="0" /></g><g
           id="g410"
           transform="translate(255.9224,458.1056)"><path
             d="m 0,0 c -2.178,0.715 -4.752,0.662 -7.032,0.852 -2.551,0.212 -4.945,-0.124 -6.907,-1.938 -1.362,-1.26 -2.158,-2.894 -2.443,-4.617 -0.33,-0.277 -0.623,-0.624 -0.841,-1.032 -1.679,-3.147 -1.132,-8.657 1.207,-11.31 3.077,-3.489 9.503,-4.571 13.751,-3.15 4.232,1.416 7.567,5.248 8.409,9.614 C 7.073,-6.763 4.875,-1.599 0,0"
             style="fill:#e89f2b;fill-opacity:1;fill-rule:nonzero;stroke:none"
             id="path412"
             inkscape:connector-curvature="0" /></g><g
           id="g414"
           transform="translate(280.904,456.143)"><path
             d="M 0,0 C -3.586,4.085 -24.209,17.307 -29.562,17.31 -37.808,17.314 -54.227,5.2 -61.21,-0.891 c -3.464,-3.022 -3.945,-4.453 -1.189,-5.201 6.016,-1.632 11.622,-1.867 16.264,-2.047 7.884,-0.305 15.778,-0.347 23.661,0.01 5.425,0.246 14.66,0.741 20.103,2.149 C 1.507,-4.978 4.761,-5.423 0,0"
             style="fill:#488c93;fill-opacity:1;fill-rule:nonzero;stroke:none"
             id="path416"
             inkscape:connector-curvature="0" /></g><g
           id="g418"
           transform="translate(250.3494,465.5066)"><path
             d="M 0,0 C -0.553,24.52 -0.778,49.064 -0.675,73.603"
             style="fill:#488c93;fill-opacity:1;fill-rule:nonzero;stroke:none"
             id="path420"
             inkscape:connector-curvature="0" /></g><g
           id="g422"
           transform="translate(251.163,465.2823)"><path
             d="m 0,0 c 2.077,5.489 1.934,-3.43 2.107,2.384 0.188,6.292 -0.24,28.34 -0.21,34.635 0.06,12.383 1.027,25.111 -1.758,37.256 -0.371,1.616 -2.874,1.602 -3.254,0 C -6.069,61.841 -4.966,48.709 -4.667,36.024 -4.519,29.73 -5.555,9.666 -5.117,3.384 -4.727,-2.2 -3.772,5.004 -1.542,-0.202 -1.225,-0.942 -0.224,-0.593 0,0"
             style="fill:#488c93;fill-opacity:1;fill-rule:nonzero;stroke:none"
             id="path424"
             inkscape:connector-curvature="0" /></g><g
           id="g426"
           transform="translate(252.6497,471.1622)"><path
             d="m 0,0 c 5.83,-2.798 11.319,-6.153 16.468,-10.064 0.769,-0.584 1.517,0.718 0.757,1.295 C 12.076,-4.857 6.587,-1.503 0.757,1.295 -0.109,1.711 -0.871,0.418 0,0"
             style="fill:#7db4b7;fill-opacity:1;fill-rule:nonzero;stroke:none"
             id="path428"
             inkscape:connector-curvature="0" /></g><g
           id="g430"
           transform="translate(239.5,445.875)"><path
             d="M 0,0 C 0.483,0 0.483,0.75 0,0.75 -0.483,0.75 -0.483,0 0,0"
             style="fill:#f4b251;fill-opacity:1;fill-rule:nonzero;stroke:none"
             id="path432"
             inkscape:connector-curvature="0" /></g><g
           id="g434"
           transform="translate(239.6349,443.7807)"><path
             d="m 0,0 c 1.986,-5.701 8.355,-7.711 13.873,-5.974 0.459,0.144 0.263,0.868 -0.2,0.723 C 8.607,-6.846 2.575,-5.116 0.723,0.199 0.565,0.652 -0.159,0.458 0,0"
             style="fill:#f4b251;fill-opacity:1;fill-rule:nonzero;stroke:none"
             id="path436"
             inkscape:connector-curvature="0" /></g><g
           id="g438"
           transform="translate(271.6667,459.5)"><path
             d="M 0,0 C 0.965,0 0.967,1.5 0,1.5 -0.965,1.5 -0.967,0 0,0"
             style="fill:#7db4b7;fill-opacity:1;fill-rule:nonzero;stroke:none"
             id="path440"
             inkscape:connector-curvature="0" /></g></g></g></g></svg>